<mxfile host="Electron" agent="Mozilla/5.0 (X11; Linux x86_64) AppleWebKit/537.36 (KHTML, like Gecko) draw.io/26.2.15 Chrome/134.0.6998.205 Electron/35.2.1 Safari/537.36" version="26.2.15">
  <diagram id="prtHgNgQTEPvFCAcTncT" name="Page-1">
    <mxGraphModel dx="2340" dy="593" grid="1" gridSize="10" guides="1" tooltips="1" connect="1" arrows="1" fold="1" page="1" pageScale="1" pageWidth="1200" pageHeight="1920" math="0" shadow="0">
      <root>
        <mxCell id="0" />
        <mxCell id="1" parent="0" />
        <mxCell id="dNxyNK7c78bLwvsdeMH5-19" value="Pool" style="swimlane;html=1;childLayout=stackLayout;resizeParent=1;resizeParentMax=0;horizontal=0;startSize=20;horizontalStack=0;" parent="1" vertex="1">
          <mxGeometry x="-420" y="70" width="1610" height="1000" as="geometry" />
        </mxCell>
        <mxCell id="om46vhF3hfdJmz1GvWQq-25" value="" style="edgeStyle=none;curved=1;rounded=0;orthogonalLoop=1;jettySize=auto;html=1;fontSize=12;startSize=8;endSize=8;" parent="dNxyNK7c78bLwvsdeMH5-19" source="om46vhF3hfdJmz1GvWQq-18" edge="1">
          <mxGeometry relative="1" as="geometry">
            <mxPoint x="230" y="281" as="targetPoint" />
          </mxGeometry>
        </mxCell>
        <mxCell id="om46vhF3hfdJmz1GvWQq-29" value="Si es" style="edgeLabel;html=1;align=center;verticalAlign=middle;resizable=0;points=[];;fontSize=12;" parent="om46vhF3hfdJmz1GvWQq-25" connectable="0" vertex="1">
          <mxGeometry x="0.0456" relative="1" as="geometry">
            <mxPoint x="1" as="offset" />
          </mxGeometry>
        </mxCell>
        <mxCell id="6Z0HDmbbD3uZh0rDGWjI-16" value="" style="edgeStyle=orthogonalEdgeStyle;rounded=0;orthogonalLoop=1;jettySize=auto;html=1;" parent="dNxyNK7c78bLwvsdeMH5-19" source="om46vhF3hfdJmz1GvWQq-24" target="6Z0HDmbbD3uZh0rDGWjI-15" edge="1">
          <mxGeometry relative="1" as="geometry" />
        </mxCell>
        <mxCell id="dNxyNK7c78bLwvsdeMH5-20" value="Proceros de ingreso" style="swimlane;html=1;startSize=20;horizontal=0;fillColor=#dae8fc;strokeColor=#6c8ebf;" parent="dNxyNK7c78bLwvsdeMH5-19" vertex="1">
          <mxGeometry x="20" width="1590" height="240" as="geometry" />
        </mxCell>
        <mxCell id="dNxyNK7c78bLwvsdeMH5-25" value="" style="edgeStyle=orthogonalEdgeStyle;rounded=0;orthogonalLoop=1;jettySize=auto;html=1;" parent="dNxyNK7c78bLwvsdeMH5-20" source="dNxyNK7c78bLwvsdeMH5-23" target="dNxyNK7c78bLwvsdeMH5-24" edge="1">
          <mxGeometry relative="1" as="geometry" />
        </mxCell>
        <mxCell id="dNxyNK7c78bLwvsdeMH5-23" value="inicio" style="ellipse;whiteSpace=wrap;html=1;fillColor=#d5e8d4;strokeColor=#82b366;gradientColor=#97d077;" parent="dNxyNK7c78bLwvsdeMH5-20" vertex="1">
          <mxGeometry x="30" y="37.5" width="40" height="40" as="geometry" />
        </mxCell>
        <mxCell id="om46vhF3hfdJmz1GvWQq-4" style="edgeStyle=none;curved=1;rounded=0;orthogonalLoop=1;jettySize=auto;html=1;entryX=0;entryY=0.5;entryDx=0;entryDy=0;fontSize=12;startSize=8;endSize=8;" parent="dNxyNK7c78bLwvsdeMH5-20" source="dNxyNK7c78bLwvsdeMH5-24" target="om46vhF3hfdJmz1GvWQq-3" edge="1">
          <mxGeometry relative="1" as="geometry" />
        </mxCell>
        <mxCell id="dNxyNK7c78bLwvsdeMH5-24" value="entrar en la web" style="rounded=0;whiteSpace=wrap;html=1;fontFamily=Helvetica;fontSize=12;align=center;fillColor=#ffe6cc;strokeColor=#d79b00;" parent="dNxyNK7c78bLwvsdeMH5-20" vertex="1">
          <mxGeometry x="120" y="27.5" width="70" height="60" as="geometry" />
        </mxCell>
        <mxCell id="om46vhF3hfdJmz1GvWQq-3" value="¿esta registrado?" style="rhombus;whiteSpace=wrap;html=1;fillColor=#fff2cc;strokeColor=#d6b656;" parent="dNxyNK7c78bLwvsdeMH5-20" vertex="1">
          <mxGeometry x="230" y="10" width="90" height="95" as="geometry" />
        </mxCell>
        <mxCell id="om46vhF3hfdJmz1GvWQq-83" style="edgeStyle=none;curved=0;rounded=0;orthogonalLoop=1;jettySize=auto;html=1;entryX=1;entryY=0.5;entryDx=0;entryDy=0;fontSize=12;startSize=8;endSize=8;strokeColor=none;" parent="dNxyNK7c78bLwvsdeMH5-20" source="om46vhF3hfdJmz1GvWQq-10" target="om46vhF3hfdJmz1GvWQq-21" edge="1">
          <mxGeometry relative="1" as="geometry">
            <Array as="points">
              <mxPoint x="463" y="155" />
            </Array>
          </mxGeometry>
        </mxCell>
        <mxCell id="NFw1pbg8bnWekOKCtLZB-11" style="edgeStyle=orthogonalEdgeStyle;rounded=0;orthogonalLoop=1;jettySize=auto;html=1;entryX=1;entryY=0.75;entryDx=0;entryDy=0;" edge="1" parent="dNxyNK7c78bLwvsdeMH5-20" source="om46vhF3hfdJmz1GvWQq-10" target="om46vhF3hfdJmz1GvWQq-21">
          <mxGeometry relative="1" as="geometry">
            <Array as="points">
              <mxPoint x="530" y="163" />
            </Array>
          </mxGeometry>
        </mxCell>
        <mxCell id="om46vhF3hfdJmz1GvWQq-10" value="Registrarse&lt;br&gt;" style="rounded=0;whiteSpace=wrap;html=1;fillColor=#ffe6cc;strokeColor=#d79b00;" parent="dNxyNK7c78bLwvsdeMH5-20" vertex="1">
          <mxGeometry x="490" y="42.5" width="70" height="30" as="geometry" />
        </mxCell>
        <mxCell id="om46vhF3hfdJmz1GvWQq-7" style="edgeStyle=none;curved=0;rounded=0;orthogonalLoop=1;jettySize=auto;html=1;exitX=1;exitY=0.5;exitDx=0;exitDy=0;fontSize=12;startSize=8;endSize=8;entryX=0;entryY=0.5;entryDx=0;entryDy=0;" parent="dNxyNK7c78bLwvsdeMH5-20" source="om46vhF3hfdJmz1GvWQq-3" target="om46vhF3hfdJmz1GvWQq-10" edge="1">
          <mxGeometry relative="1" as="geometry">
            <mxPoint x="420" y="20" as="targetPoint" />
            <Array as="points" />
          </mxGeometry>
        </mxCell>
        <mxCell id="6Z0HDmbbD3uZh0rDGWjI-5" value="no" style="edgeLabel;html=1;align=center;verticalAlign=middle;resizable=0;points=[];" parent="om46vhF3hfdJmz1GvWQq-7" connectable="0" vertex="1">
          <mxGeometry x="-0.193" y="-2" relative="1" as="geometry">
            <mxPoint as="offset" />
          </mxGeometry>
        </mxCell>
        <mxCell id="om46vhF3hfdJmz1GvWQq-21" value="inicio sesión" style="whiteSpace=wrap;html=1;fillColor=#ffe6cc;strokeColor=#d79b00;" parent="dNxyNK7c78bLwvsdeMH5-20" vertex="1">
          <mxGeometry x="347" y="140" width="86" height="30" as="geometry" />
        </mxCell>
        <mxCell id="om46vhF3hfdJmz1GvWQq-22" value="" style="edgeStyle=none;curved=0;rounded=0;orthogonalLoop=1;jettySize=auto;html=1;fontSize=12;startSize=8;endSize=8;exitX=0.5;exitY=1;exitDx=0;exitDy=0;entryX=0;entryY=0.5;entryDx=0;entryDy=0;" parent="dNxyNK7c78bLwvsdeMH5-20" source="om46vhF3hfdJmz1GvWQq-3" target="om46vhF3hfdJmz1GvWQq-21" edge="1">
          <mxGeometry relative="1" as="geometry">
            <Array as="points">
              <mxPoint x="275" y="155" />
            </Array>
          </mxGeometry>
        </mxCell>
        <mxCell id="6Z0HDmbbD3uZh0rDGWjI-6" value="si" style="edgeLabel;html=1;align=center;verticalAlign=middle;resizable=0;points=[];" parent="om46vhF3hfdJmz1GvWQq-22" connectable="0" vertex="1">
          <mxGeometry x="-0.2796" y="3" relative="1" as="geometry">
            <mxPoint x="-1" as="offset" />
          </mxGeometry>
        </mxCell>
        <mxCell id="jeL5-2lwvSsuiDeLAfYL-40" value="" style="edgeStyle=orthogonalEdgeStyle;rounded=0;orthogonalLoop=1;jettySize=auto;html=1;" parent="dNxyNK7c78bLwvsdeMH5-19" source="jeL5-2lwvSsuiDeLAfYL-37" target="jeL5-2lwvSsuiDeLAfYL-39" edge="1">
          <mxGeometry relative="1" as="geometry" />
        </mxCell>
        <mxCell id="jeL5-2lwvSsuiDeLAfYL-41" value="Apartado para" style="edgeLabel;html=1;align=center;verticalAlign=middle;resizable=0;points=[];" parent="jeL5-2lwvSsuiDeLAfYL-40" vertex="1" connectable="0">
          <mxGeometry x="-0.2876" relative="1" as="geometry">
            <mxPoint as="offset" />
          </mxGeometry>
        </mxCell>
        <mxCell id="jeL5-2lwvSsuiDeLAfYL-48" value="" style="edgeStyle=orthogonalEdgeStyle;rounded=0;orthogonalLoop=1;jettySize=auto;html=1;" parent="dNxyNK7c78bLwvsdeMH5-19" source="om46vhF3hfdJmz1GvWQq-24" target="jeL5-2lwvSsuiDeLAfYL-47" edge="1">
          <mxGeometry relative="1" as="geometry" />
        </mxCell>
        <mxCell id="jeL5-2lwvSsuiDeLAfYL-50" style="edgeStyle=orthogonalEdgeStyle;rounded=0;orthogonalLoop=1;jettySize=auto;html=1;" parent="dNxyNK7c78bLwvsdeMH5-19" source="om46vhF3hfdJmz1GvWQq-24" target="jeL5-2lwvSsuiDeLAfYL-49" edge="1">
          <mxGeometry relative="1" as="geometry" />
        </mxCell>
        <mxCell id="jeL5-2lwvSsuiDeLAfYL-30" value="" style="edgeStyle=orthogonalEdgeStyle;rounded=0;orthogonalLoop=1;jettySize=auto;html=1;" parent="dNxyNK7c78bLwvsdeMH5-19" source="jeL5-2lwvSsuiDeLAfYL-28" target="jeL5-2lwvSsuiDeLAfYL-29" edge="1">
          <mxGeometry relative="1" as="geometry" />
        </mxCell>
        <mxCell id="jeL5-2lwvSsuiDeLAfYL-33" value="" style="edgeStyle=orthogonalEdgeStyle;rounded=0;orthogonalLoop=1;jettySize=auto;html=1;" parent="dNxyNK7c78bLwvsdeMH5-19" source="jeL5-2lwvSsuiDeLAfYL-28" target="jeL5-2lwvSsuiDeLAfYL-29" edge="1">
          <mxGeometry relative="1" as="geometry" />
        </mxCell>
        <mxCell id="jeL5-2lwvSsuiDeLAfYL-34" style="edgeStyle=orthogonalEdgeStyle;rounded=0;orthogonalLoop=1;jettySize=auto;html=1;entryX=0.5;entryY=0;entryDx=0;entryDy=0;" parent="dNxyNK7c78bLwvsdeMH5-19" source="jeL5-2lwvSsuiDeLAfYL-28" target="6Z0HDmbbD3uZh0rDGWjI-10" edge="1">
          <mxGeometry relative="1" as="geometry" />
        </mxCell>
        <mxCell id="dNxyNK7c78bLwvsdeMH5-21" value="&lt;span style=&quot;background-color: initial;&quot;&gt;Rol&lt;/span&gt;" style="swimlane;html=1;startSize=20;horizontal=0;fillColor=#f8cecc;strokeColor=#b85450;" parent="dNxyNK7c78bLwvsdeMH5-19" vertex="1">
          <mxGeometry x="20" y="240" width="1590" height="280" as="geometry" />
        </mxCell>
        <mxCell id="om46vhF3hfdJmz1GvWQq-24" value="Empleado" style="whiteSpace=wrap;html=1;fillColor=#ffe6cc;strokeColor=#d79b00;" parent="dNxyNK7c78bLwvsdeMH5-21" vertex="1">
          <mxGeometry x="115" y="37.5" width="120" height="55" as="geometry" />
        </mxCell>
        <mxCell id="jeL5-2lwvSsuiDeLAfYL-37" value="Aspirante&lt;div&gt;&lt;br&gt;&lt;/div&gt;" style="whiteSpace=wrap;html=1;fillColor=#ffe6cc;strokeColor=#d79b00;" parent="dNxyNK7c78bLwvsdeMH5-21" vertex="1">
          <mxGeometry x="330" y="70" width="120" height="55" as="geometry" />
        </mxCell>
        <mxCell id="jeL5-2lwvSsuiDeLAfYL-28" value="Visualizaría apartado de contratos, solicitudes y áreas en la empresa" style="whiteSpace=wrap;html=1;fillColor=#ffe6cc;strokeColor=#d79b00;" parent="dNxyNK7c78bLwvsdeMH5-21" vertex="1">
          <mxGeometry x="670" y="57.5" width="230" height="80" as="geometry" />
        </mxCell>
        <mxCell id="om46vhF3hfdJmz1GvWQq-18" value="Rol" style="rhombus;whiteSpace=wrap;html=1;fillColor=#fff2cc;strokeColor=#d6b656;" parent="dNxyNK7c78bLwvsdeMH5-21" vertex="1">
          <mxGeometry x="335" width="110" height="50" as="geometry" />
        </mxCell>
        <mxCell id="jeL5-2lwvSsuiDeLAfYL-38" style="edgeStyle=orthogonalEdgeStyle;rounded=0;orthogonalLoop=1;jettySize=auto;html=1;entryX=0.5;entryY=0;entryDx=0;entryDy=0;" parent="dNxyNK7c78bLwvsdeMH5-21" source="om46vhF3hfdJmz1GvWQq-18" target="jeL5-2lwvSsuiDeLAfYL-37" edge="1">
          <mxGeometry relative="1" as="geometry" />
        </mxCell>
        <mxCell id="NFw1pbg8bnWekOKCtLZB-7" style="edgeStyle=orthogonalEdgeStyle;rounded=0;orthogonalLoop=1;jettySize=auto;html=1;" edge="1" parent="dNxyNK7c78bLwvsdeMH5-21" source="om46vhF3hfdJmz1GvWQq-18">
          <mxGeometry relative="1" as="geometry">
            <mxPoint x="780" y="55" as="targetPoint" />
          </mxGeometry>
        </mxCell>
        <mxCell id="NFw1pbg8bnWekOKCtLZB-8" value="Si es Recursos Humanos o Administrador" style="edgeLabel;html=1;align=center;verticalAlign=middle;resizable=0;points=[];" vertex="1" connectable="0" parent="NFw1pbg8bnWekOKCtLZB-7">
          <mxGeometry x="0.0619" y="3" relative="1" as="geometry">
            <mxPoint as="offset" />
          </mxGeometry>
        </mxCell>
        <mxCell id="om46vhF3hfdJmz1GvWQq-23" value="" style="edgeStyle=none;curved=1;rounded=0;orthogonalLoop=1;jettySize=auto;html=1;fontSize=12;startSize=8;endSize=8;" parent="dNxyNK7c78bLwvsdeMH5-19" source="om46vhF3hfdJmz1GvWQq-21" target="om46vhF3hfdJmz1GvWQq-18" edge="1">
          <mxGeometry relative="1" as="geometry" />
        </mxCell>
        <mxCell id="dNxyNK7c78bLwvsdeMH5-22" value="Función" style="swimlane;html=1;startSize=20;horizontal=0;fillColor=#fad7ac;strokeColor=#b46504;" parent="dNxyNK7c78bLwvsdeMH5-19" vertex="1">
          <mxGeometry x="20" y="520" width="1590" height="480" as="geometry" />
        </mxCell>
        <mxCell id="om46vhF3hfdJmz1GvWQq-82" style="edgeStyle=none;curved=1;rounded=0;orthogonalLoop=1;jettySize=auto;html=1;exitX=0.5;exitY=1;exitDx=0;exitDy=0;fontSize=12;startSize=8;endSize=8;" parent="dNxyNK7c78bLwvsdeMH5-22" edge="1">
          <mxGeometry relative="1" as="geometry">
            <mxPoint x="150.00000000000045" y="200" as="sourcePoint" />
            <mxPoint x="150.00000000000045" y="200" as="targetPoint" />
          </mxGeometry>
        </mxCell>
        <mxCell id="6Z0HDmbbD3uZh0rDGWjI-12" value="fin" style="ellipse;whiteSpace=wrap;html=1;fillColor=#ffe6cc;strokeColor=#d79b00;" parent="dNxyNK7c78bLwvsdeMH5-22" vertex="1">
          <mxGeometry x="130" y="390" width="90" height="80" as="geometry" />
        </mxCell>
        <mxCell id="NFw1pbg8bnWekOKCtLZB-2" style="edgeStyle=orthogonalEdgeStyle;rounded=0;orthogonalLoop=1;jettySize=auto;html=1;entryX=0;entryY=0.5;entryDx=0;entryDy=0;" edge="1" parent="dNxyNK7c78bLwvsdeMH5-22" source="6Z0HDmbbD3uZh0rDGWjI-15" target="6Z0HDmbbD3uZh0rDGWjI-12">
          <mxGeometry relative="1" as="geometry" />
        </mxCell>
        <mxCell id="6Z0HDmbbD3uZh0rDGWjI-15" value="Pedir solicitudes de ausencias, permisos, Finalizar su jornada generar Certificados" style="whiteSpace=wrap;html=1;fillColor=#ffe6cc;strokeColor=#d79b00;" parent="dNxyNK7c78bLwvsdeMH5-22" vertex="1">
          <mxGeometry x="30" y="100" width="120" height="60" as="geometry" />
        </mxCell>
        <mxCell id="NFw1pbg8bnWekOKCtLZB-15" style="edgeStyle=orthogonalEdgeStyle;rounded=0;orthogonalLoop=1;jettySize=auto;html=1;entryX=1;entryY=0.5;entryDx=0;entryDy=0;" edge="1" parent="dNxyNK7c78bLwvsdeMH5-22" source="om46vhF3hfdJmz1GvWQq-30" target="6Z0HDmbbD3uZh0rDGWjI-12">
          <mxGeometry relative="1" as="geometry" />
        </mxCell>
        <mxCell id="om46vhF3hfdJmz1GvWQq-30" value="&lt;div&gt;&lt;span style=&quot;text-align: center; background-color: transparent; color: light-dark(rgb(0, 0, 0), rgb(255, 255, 255));&quot;&gt;&lt;font style=&quot;font-size: 12px;&quot;&gt;Gestión de cargos&lt;/font&gt;&lt;/span&gt;&lt;/div&gt;&lt;font size=&quot;3&quot;&gt;&lt;span style=&quot;background-color: transparent; white-space-collapse: preserve; font-family: Arial, sans-serif;&quot;&gt;Gestión de vacantes en la empresa.&lt;/span&gt;&lt;/font&gt;&lt;div&gt;&lt;font size=&quot;3&quot;&gt;&lt;span style=&quot;font-variant-numeric: normal; font-variant-east-asian: normal; font-variant-alternates: normal; font-variant-position: normal; text-align: center; white-space-collapse: preserve; background-color: transparent; font-family: Arial, sans-serif; vertical-align: baseline;&quot;&gt;Gestión de perfiles tanto&lt;/span&gt;&lt;span style=&quot;font-variant-numeric: normal; font-variant-east-asian: normal; font-variant-alternates: normal; font-variant-position: normal; text-align: center; white-space-collapse: preserve; background-color: transparent; font-family: Arial, sans-serif; color: rgb(81, 45, 168); vertical-align: baseline;&quot;&gt; &lt;/span&gt;&lt;span style=&quot;font-variant-numeric: normal; font-variant-east-asian: normal; font-variant-alternates: normal; font-variant-position: normal; text-align: center; white-space-collapse: preserve; background-color: transparent; font-family: Arial, sans-serif; vertical-align: baseline;&quot;&gt;de aspirantes, empleados y de recursos humanos.&lt;/span&gt;&lt;span style=&quot;background-color: transparent; white-space-collapse: preserve; font-family: Arial, sans-serif;&quot;&gt;&lt;br&gt;&lt;/span&gt;&lt;/font&gt;&lt;div&gt;&lt;font size=&quot;3&quot;&gt;&lt;span style=&quot;background-color: transparent; font-family: Arial, sans-serif; white-space-collapse: preserve;&quot;&gt;Gestión de agendación de citas para entrevista aspirante&lt;/span&gt;&lt;/font&gt;&lt;/div&gt;&lt;div&gt;&lt;font size=&quot;3&quot;&gt;&lt;span style=&quot;background-color: transparent; white-space-collapse: preserve; font-family: Arial, sans-serif;&quot;&gt;Gestión de hojas de vida.&lt;/span&gt;&lt;br&gt;&lt;span style=&quot;background-color: transparent; white-space-collapse: preserve; font-family: Arial, sans-serif;&quot;&gt;Gestión de ausencias.&lt;/span&gt;&lt;br&gt;&lt;span style=&quot;background-color: transparent; white-space-collapse: preserve; font-family: Arial, sans-serif;&quot;&gt;Gestión de paz y salvos.&lt;/span&gt;&lt;br&gt;&lt;div style=&quot;&quot;&gt;&lt;span style=&quot;background-color: transparent; font-family: Arial, sans-serif; white-space-collapse: preserve;&quot;&gt;Gestión de contratos.&lt;/span&gt;&lt;/div&gt;&lt;div style=&quot;&quot;&gt;&lt;span style=&quot;background-color: transparent; white-space-collapse: preserve; font-family: Arial, sans-serif;&quot;&gt;Gestión de jornada: HH:MM inicio y HH:MM fin.&lt;/span&gt;&lt;/div&gt;&lt;div style=&quot;&quot;&gt;&lt;span style=&quot;background-color: transparent; font-family: Arial, sans-serif; white-space-collapse: preserve;&quot;&gt;Gestión de quejas y reclamos.&lt;/span&gt;&lt;/div&gt;&lt;/font&gt;&lt;/div&gt;&lt;/div&gt;" style="whiteSpace=wrap;html=1;fillColor=#ffe6cc;strokeColor=#d79b00;align=left;" parent="dNxyNK7c78bLwvsdeMH5-22" vertex="1">
          <mxGeometry x="600" y="265" width="420" height="210" as="geometry" />
        </mxCell>
        <mxCell id="6Z0HDmbbD3uZh0rDGWjI-10" value="Aceptar, rechazar o actualizar" style="whiteSpace=wrap;html=1;fillColor=#ffe6cc;strokeColor=#d79b00;" parent="dNxyNK7c78bLwvsdeMH5-22" vertex="1">
          <mxGeometry x="960" width="120" height="60" as="geometry" />
        </mxCell>
        <mxCell id="jeL5-2lwvSsuiDeLAfYL-35" style="edgeStyle=orthogonalEdgeStyle;rounded=0;orthogonalLoop=1;jettySize=auto;html=1;" parent="dNxyNK7c78bLwvsdeMH5-22" source="jeL5-2lwvSsuiDeLAfYL-29" target="jeL5-2lwvSsuiDeLAfYL-31" edge="1">
          <mxGeometry relative="1" as="geometry">
            <Array as="points">
              <mxPoint x="710" y="150" />
            </Array>
          </mxGeometry>
        </mxCell>
        <mxCell id="jeL5-2lwvSsuiDeLAfYL-29" value="Tiene acceso a una actualizacion y visualizacion de" style="whiteSpace=wrap;html=1;fillColor=#ffe6cc;strokeColor=#d79b00;" parent="dNxyNK7c78bLwvsdeMH5-22" vertex="1">
          <mxGeometry x="520" width="120" height="60" as="geometry" />
        </mxCell>
        <mxCell id="NFw1pbg8bnWekOKCtLZB-13" style="edgeStyle=orthogonalEdgeStyle;rounded=0;orthogonalLoop=1;jettySize=auto;html=1;entryX=0.5;entryY=0;entryDx=0;entryDy=0;" edge="1" parent="dNxyNK7c78bLwvsdeMH5-22" source="jeL5-2lwvSsuiDeLAfYL-31" target="om46vhF3hfdJmz1GvWQq-30">
          <mxGeometry relative="1" as="geometry" />
        </mxCell>
        <mxCell id="NFw1pbg8bnWekOKCtLZB-14" value="Especificamente" style="edgeLabel;html=1;align=center;verticalAlign=middle;resizable=0;points=[];" vertex="1" connectable="0" parent="NFw1pbg8bnWekOKCtLZB-13">
          <mxGeometry x="-0.2372" y="2" relative="1" as="geometry">
            <mxPoint as="offset" />
          </mxGeometry>
        </mxCell>
        <mxCell id="jeL5-2lwvSsuiDeLAfYL-31" value="&lt;font&gt;1. Gestión Laboral&lt;/font&gt;&lt;br&gt;&lt;br&gt;&lt;div&gt;&lt;font&gt;2. Gestion de Contratacion&lt;/font&gt;&lt;br&gt;&lt;/div&gt;&lt;div&gt;&lt;br&gt;&lt;/div&gt;&lt;div&gt;&lt;font&gt;3. Gestión de hojas de vida&lt;/font&gt;&lt;br&gt;&lt;/div&gt;&lt;div&gt;&lt;br&gt;&lt;/div&gt;&lt;div&gt;&lt;br&gt;&lt;/div&gt;&lt;div&gt;&lt;br&gt;&lt;/div&gt;" style="whiteSpace=wrap;html=1;fillColor=#ffe6cc;strokeColor=#d79b00;" parent="dNxyNK7c78bLwvsdeMH5-22" vertex="1">
          <mxGeometry x="700" y="70" width="220" height="130" as="geometry" />
        </mxCell>
        <mxCell id="jeL5-2lwvSsuiDeLAfYL-39" value="Subida de hoja de vida y postulacion a las vacantes&amp;nbsp;" style="whiteSpace=wrap;html=1;fillColor=#ffe6cc;strokeColor=#d79b00;" parent="dNxyNK7c78bLwvsdeMH5-22" vertex="1">
          <mxGeometry x="330" y="17.5" width="120" height="62.5" as="geometry" />
        </mxCell>
        <mxCell id="jeL5-2lwvSsuiDeLAfYL-47" value="Consultar sus jornadas, ausencias,horas extra y su contrato" style="whiteSpace=wrap;html=1;fillColor=#ffe6cc;strokeColor=#d79b00;" parent="dNxyNK7c78bLwvsdeMH5-22" vertex="1">
          <mxGeometry x="210" y="100" width="120" height="60" as="geometry" />
        </mxCell>
        <mxCell id="jeL5-2lwvSsuiDeLAfYL-53" style="edgeStyle=orthogonalEdgeStyle;rounded=0;orthogonalLoop=1;jettySize=auto;html=1;entryX=0.5;entryY=0;entryDx=0;entryDy=0;" parent="dNxyNK7c78bLwvsdeMH5-22" source="jeL5-2lwvSsuiDeLAfYL-49" target="6Z0HDmbbD3uZh0rDGWjI-12" edge="1">
          <mxGeometry relative="1" as="geometry" />
        </mxCell>
        <mxCell id="jeL5-2lwvSsuiDeLAfYL-49" value="Consultar paz y salvos y consultar chats PQRS" style="whiteSpace=wrap;html=1;fillColor=#ffe6cc;strokeColor=#d79b00;" parent="dNxyNK7c78bLwvsdeMH5-22" vertex="1">
          <mxGeometry x="115" y="200" width="120" height="60" as="geometry" />
        </mxCell>
        <mxCell id="NFw1pbg8bnWekOKCtLZB-5" style="edgeStyle=orthogonalEdgeStyle;rounded=0;orthogonalLoop=1;jettySize=auto;html=1;entryX=0.808;entryY=0.126;entryDx=0;entryDy=0;entryPerimeter=0;" edge="1" parent="dNxyNK7c78bLwvsdeMH5-22" source="jeL5-2lwvSsuiDeLAfYL-47" target="6Z0HDmbbD3uZh0rDGWjI-12">
          <mxGeometry relative="1" as="geometry">
            <Array as="points">
              <mxPoint x="270" y="320" />
              <mxPoint x="203" y="320" />
            </Array>
          </mxGeometry>
        </mxCell>
        <mxCell id="NFw1pbg8bnWekOKCtLZB-12" style="edgeStyle=orthogonalEdgeStyle;rounded=0;orthogonalLoop=1;jettySize=auto;html=1;entryX=0.997;entryY=0.59;entryDx=0;entryDy=0;entryPerimeter=0;" edge="1" parent="dNxyNK7c78bLwvsdeMH5-22" source="6Z0HDmbbD3uZh0rDGWjI-10" target="jeL5-2lwvSsuiDeLAfYL-31">
          <mxGeometry relative="1" as="geometry">
            <Array as="points">
              <mxPoint x="1020" y="147" />
            </Array>
          </mxGeometry>
        </mxCell>
      </root>
    </mxGraphModel>
  </diagram>
</mxfile>
